<svg width="20" height="23" viewBox="0 0 20 23" fill="none" xmlns="http://www.w3.org/2000/svg">
<g id="ICON bl&#195;&#169;">
<path id="Rectangle 86" d="M0.742676 0.503418C5.43438 0.503418 9.23775 4.30679 9.23775 8.99849V22.5035C4.54605 22.5035 0.742676 18.7001 0.742676 14.0084V0.503418Z" fill="#D9C08A"/>
<path id="Rectangle 87" d="M19.2578 0.503418C14.5661 0.503418 10.7627 4.30679 10.7627 8.99849V22.5035C15.4544 22.5035 19.2578 18.7001 19.2578 14.0084V0.503418Z" fill="#D9C08A"/>
<path id="Rectangle 88" d="M0.742676 6.1665C5.43438 6.1665 9.23775 9.96988 9.23775 14.6616V22.5032C4.54605 22.5032 0.742676 18.6998 0.742676 14.0081V6.1665Z" fill="#CFAB6B"/>
<path id="Rectangle 89" d="M19.2578 6.1665C14.5661 6.1665 10.7627 9.96988 10.7627 14.6616V22.5032C15.4544 22.5032 19.2578 18.6998 19.2578 14.0081V6.1665Z" fill="#CFAB6B"/>
<path id="Rectangle 90" d="M0.742676 6.1665C5.43438 6.1665 9.23775 9.96988 9.23775 14.6616V22.5032C4.54605 22.5032 0.742676 18.6998 0.742676 14.0081V6.1665Z" fill="#CFAB6B"/>
<path id="Rectangle 91" d="M19.2578 6.1665C14.5661 6.1665 10.7627 9.96988 10.7627 14.6616V22.5032C15.4544 22.5032 19.2578 18.6998 19.2578 14.0081V6.1665Z" fill="#CFAB6B"/>
<path id="Rectangle 92" d="M0.742676 12.4836C5.43438 12.4836 9.23775 16.287 9.23775 20.9787V22.5035C4.54605 22.5035 0.742676 18.7001 0.742676 14.0084V12.4836Z" fill="#C09745"/>
<path id="Rectangle 93" d="M19.2578 12.4836C14.5661 12.4836 10.7627 16.287 10.7627 20.9787V22.5035C15.4544 22.5035 19.2578 18.7001 19.2578 14.0084V12.4836Z" fill="#C09745"/>
</g>
</svg>
